Coordinates
version=1
nRows=17
nColumns=24
inDegrees=yes

Units are S.I. units (second, meters, Newtons, ...)
Angles are in degrees.

endheader
time	pelvis_tilt	pelvis_list	pelvis_rotation	pelvis_tx	pelvis_ty	pelvis_tz	hip_flexion_r	hip_adduction_r	hip_rotation_r	knee_angle_r	ankle_angle_r	subtalar_angle_r	mtp_angle_r	hip_flexion_l	hip_adduction_l	hip_rotation_l	knee_angle_l	ankle_angle_l	subtalar_angle_l	mtp_angle_l	lumbar_extension	lumbar_bending	lumbar_rotation
      6.06000000	     -7.98965576	     -1.01610997	     10.25973978	     -1.73653521	     -0.02094930	     -0.33751346	     31.55102648	     -2.95535990	     -8.53832846	    -10.69328327	     -2.65271846	      6.21908938	     11.69384082	     -5.18130661	      0.16444827	     18.32976665	    -16.02438346	      6.47925658	      3.36057397	     18.11833417	      2.93996405	     -1.66619998	    -11.32008480
      6.06500000	     -8.03972594	     -1.16937792	     10.31598931	     -1.72983642	     -0.02168384	     -0.33697667	     31.54261200	     -2.81653918	     -8.90878239	    -11.24782671	     -3.06779499	      6.21433917	     12.23630446	     -5.27144983	     -0.09983051	     18.11815222	    -16.50626078	      6.42407946	      4.04968014	     18.12666752	      3.21976438	     -1.48616568	    -11.37339906
      6.07000000	     -8.13301431	     -1.24579870	     10.33873283	     -1.72330707	     -0.02243308	     -0.33630728	     31.60740318	     -2.73837589	     -9.13167277	    -11.81420475	     -3.68190875	      6.05723516	     13.18198523	     -5.26398727	     -0.27939282	     17.74627523	    -17.05621313	      6.23754707	      4.86502869	     18.49914676	      3.49798806	     -1.40144945	    -11.31021644
      6.07500000	     -8.23727061	     -1.40835960	     10.24992159	     -1.71659289	     -0.02312310	     -0.33558442	     31.68351952	     -2.51752016	     -9.27684812	    -12.29601036	     -4.67886906	      5.67552575	     14.72981256	     -5.28834379	     -0.53773073	     17.35285657	    -17.49736748	      5.77013243	      5.28054609	     19.30048488	      3.83807009	     -1.20197785	    -11.20490964
      6.08000000	     -8.31818563	     -1.65071322	     10.28198869	     -1.70995886	     -0.02366016	     -0.33494158	     31.74859818	     -2.28007643	     -9.59044883	    -12.86643172	     -5.16730060	      5.55953354	     14.94280963	     -5.23519846	     -0.89534171	     17.01270435	    -18.09353702	      5.48903101	      6.04547056	     19.65831504	      4.15326979	     -0.93422491	    -11.21100254
      6.08500000	     -8.43478884	     -1.91320736	     10.18199680	     -1.70333755	     -0.02417866	     -0.33406974	     31.88930299	     -1.93864053	     -9.65405848	    -13.44498155	     -5.79096279	      5.27300175	     15.25124692	     -5.12165990	     -1.27489511	     16.42527609	    -18.70807009	      5.11280409	      6.85665020	     20.27038783	      4.50355110	     -0.64703134	    -11.08908514
      6.09000000	     -8.54952571	     -2.22196299	     10.04524369	     -1.69673005	     -0.02459607	     -0.33318953	     32.04056854	     -1.52299168	     -9.60885303	    -14.02159270	     -6.43543858	      4.93186157	     15.52569204	     -4.98154518	     -1.69827265	     15.83411190	    -19.35508335	      4.63847511	      7.63678794	     20.98104683	      4.85601874	     -0.29099176	    -10.95858372
      6.09500000	     -8.66200883	     -2.54066475	      9.89547583	     -1.69011818	     -0.02489611	     -0.33223416	     32.18674563	     -1.06467908	     -9.42275450	    -14.59387462	     -7.05280523	      4.47763276	     15.76428212	     -4.80074120	     -2.14256896	     15.13823797	    -20.04757519	      4.01590614	      8.43190588	     21.83672868	      5.20818298	      0.06715754	    -10.78525460
      6.10000000	     -8.76601526	     -2.88878345	      9.70960113	     -1.68352231	     -0.02509478	     -0.33124762	     32.34055025	     -0.54376427	     -9.12689547	    -15.19819616	     -7.61289052	      4.02000549	     15.87833149	     -4.59944574	     -2.61951028	     14.41595283	    -20.77990408	      3.31933286	      9.22911858	     22.73064843	      5.54852035	      0.46789490	    -10.60039287
      6.10500000	     -8.86115162	     -3.24396432	      9.49754084	     -1.67692419	     -0.02519620	     -0.33021634	     32.48941537	      0.02052902	     -8.70822036	    -15.82668324	     -8.09500868	      3.51817390	     15.84979923	     -4.37362746	     -3.11230774	     13.63969292	    -21.56043415	      2.52430235	     10.06379749	     23.67311765	      5.87668217	      0.88138652	    -10.39543686
      6.11000000	     -8.94461043	     -3.59610481	      9.26675227	     -1.67031462	     -0.02520375	     -0.32914963	     32.62108845	      0.61498643	     -8.18855306	    -16.46794999	     -8.48260367	      2.96309101	     15.67564939	     -4.12858335	     -3.61356187	     12.81114591	    -22.38232940	      1.60054774	     10.91504877	     24.69892649	      6.18855372	      1.29483851	    -10.18212406
      6.11500000	     -9.00911732	     -3.93000253	      9.02796844	     -1.66368177	     -0.02512286	     -0.32806147	     32.71726989	      1.22233540	     -7.58667341	    -17.11206305	     -8.76162306	      2.34292144	     15.32126564	     -3.87505103	     -4.10786626	     11.96228495	    -23.23756231	      0.49876421	     11.73360884	     25.90820715	      6.47627801	      1.69575243	     -9.97233543
      6.12000000	     -9.05634469	     -4.28500700	      8.77921061	     -1.65694692	     -0.02492458	     -0.32697930	     32.77195062	      1.87146326	     -7.00190006	    -17.74414302	     -8.92200680	      1.73580825	     14.64720512	     -3.63979472	     -4.63180449	     11.15227753	    -24.05307916	     -0.90322152	     12.33842987	     27.51035748	      6.76219409	      2.11927279	     -9.73271159
      6.12500000	     -9.07384495	     -4.58371341	      8.52646092	     -1.65025804	     -0.02469645	     -0.32589238	     32.78110643	      2.47586144	     -6.41390425	    -18.38238775	     -8.91421947	      1.23003664	     14.05181777	     -3.37436801	     -5.11634649	     10.24772948	    -25.00686573	     -2.23638962	     13.17793524	     28.66112595	      6.99387135	      2.49187231	     -9.50852789
      6.13000000	     -9.07808180	     -4.84757715	      8.29677318	     -1.64358334	     -0.02441925	     -0.32482332	     32.73222511	      3.05535978	     -5.73792911	    -18.96954221	     -8.86288556	      0.66722892	     13.49589000	     -3.08204117	     -5.57331778	      9.40274431	    -26.02767211	     -3.65124992	     14.04515432	     29.67868776	      7.20083123	      2.82261750	     -9.34149703
      6.13500000	     -9.06066498	     -5.07788276	      8.06041590	     -1.63686431	     -0.02408104	     -0.32374267	     32.62103290	      3.61417704	     -5.12122659	    -19.51029271	     -8.71628067	      0.12506464	     12.90690944	     -2.79860626	     -6.00862739	      8.56383050	    -27.05483407	     -5.26675034	     14.82735198	     30.78657971	      7.38512448	      3.12047367	     -9.15456603
      6.14000000	     -9.02477367	     -5.28522479	      7.83736695	     -1.63016926	     -0.02369320	     -0.32269635	     32.45134908	      4.14369856	     -4.57712595	    -19.99596011	     -8.49517801	     -0.35844666	     12.31913593	     -2.50028380	     -6.42410814	      7.77491932	    -28.11837573	     -7.04493679	     15.49118124	     31.90995144	      7.53878126	      3.39465873	     -8.97271757
